# xmcd CD database file
#
# Track frame offsets:
#	150
#	17832
#	36517
#	55515
#	75930
#	99816
#	119427
#	137510
#	153407
#	172778
#	176911
#	196445
#	216667
#	236018
#	255272
#	272689
#	291306
#	311099
#	332446
#
# Disc length: 4701 seconds
#
# Revision: 0
# Processed by: cddbd v1.5.2PL0 Copyright (c) Steve Scherf et al.
# Submitted via: CDex 1.70beta2
#
DISCID=05125b13
DTITLE=Karl May-CD5 - Der Schatz im Silbersee-CD05
DYEAR=2006
DGENRE=Hörbuch Karl May
TTITLE0=Der Schatz im Silbersee-CD05
TTITLE1=Der Schatz im Silbersee-CD05
TTITLE2=Der Schatz im Silbersee-CD05
TTITLE3=Der Schatz im Silbersee-CD05
TTITLE4=Der Schatz im Silbersee-CD05
TTITLE5=Der Schatz im Silbersee-CD05
TTITLE6=Der Schatz im Silbersee-CD05
TTITLE7=Der Schatz im Silbersee-CD05
TTITLE8=Der Schatz im Silbersee-CD05
TTITLE9=Der Schatz im Silbersee-CD05
TTITLE10=Der Schatz im Silbersee-CD05
TTITLE11=Der Schatz im Silbersee-CD05
TTITLE12=Der Schatz im Silbersee-CD05
TTITLE13=Der Schatz im Silbersee-CD05
TTITLE14=Der Schatz im Silbersee-CD05
TTITLE15=Der Schatz im Silbersee-CD05
TTITLE16=Der Schatz im Silbersee-CD05
TTITLE17=Der Schatz im Silbersee-CD05
TTITLE18=Der Schatz im Silbersee-CD05
EXTD=YEAR: 2006
EXTT0=
EXTT1=
EXTT2=
EXTT3=
EXTT4=
EXTT5=
EXTT6=
EXTT7=
EXTT8=
EXTT9=
EXTT10=
EXTT11=
EXTT12=
EXTT13=
EXTT14=
EXTT15=
EXTT16=
EXTT17=
EXTT18=
PLAYORDER=
